<svg width="48" height="48" viewBox="0 0 48 48" fill="none" xmlns="http://www.w3.org/2000/svg">
<g clip-path="url(#clip0_1_51)">
<path d="M32 4V13H16.5L10.5 4H32Z" fill="#06BBE6"/>
<path d="M38.5 4H32V14.5L37.5 9L43 4H38.5Z" fill="#09A8E9"/>
<path d="M37 9.5L43 4L32 27.5V14.5L37 9.5Z" fill="#6BD4E9"/>
<path d="M43 21V4L32 27.5C31.5915 29.5494 30.993 31.0084 29.5 32.5L35.5 41.5C40.8127 37.0044 42.3401 34.0112 43 28V21Z" fill="#05C8DF"/>
<path d="M26.5 34.5C27.3934 34.4072 28.2456 33.7229 29.5 32.5L35.5 41.5C29.5814 45.2307 24.3606 46.1628 13 43L26.5 34.5Z" fill="#04C0E3"/>
<path d="M14 27C15.983 34.1782 19.2387 35.0598 26.5 34.5L13 43C9.33432 41.1099 7.38954 39.3482 5 35L14 27Z" fill="#0AA2E5"/>
<path d="M29.5 32.5C30.3935 26.5885 30.7232 21.0505 32 14.5V27.5C31.4782 30.1893 30.8657 31.1611 29.5 32.5Z" fill="#D8F1F6" fill-opacity="0.8"/>
</g>
<defs>
<clipPath id="clip0_1_51">
<rect width="48" height="48" fill="white"/>
</clipPath>
</defs>
</svg>
